<svg width="435" height="273" viewBox="0 0 435 273" fill="none" xmlns="http://www.w3.org/2000/svg">
<path d="M330.757 64.56C342.117 88.07 360.317 131.79 360.317 131.79C368.107 148.76 355.707 168.09 337.037 168.09H276.627L292.807 118.52H302.887C303.947 118.52 304.697 117.49 304.387 116.48L291.397 74.66C287.157 61.19 297.327 51.15 302.797 49.14C313.877 45.07 324.667 51.97 330.757 64.56Z" fill="#FFD561"/>
<path d="M337.027 168.59H275.938L292.448 118.02H302.888C303.228 118.02 303.547 117.86 303.747 117.59C303.957 117.31 304.008 116.96 303.908 116.63L290.918 74.81C288.528 67.2 290.747 61.11 293.027 57.35C295.797 52.77 299.848 49.7 302.628 48.68C313.458 44.7 324.677 50.85 331.207 64.36C342.447 87.61 360.597 131.17 360.777 131.61C364.497 139.72 363.837 149.06 359.017 156.59C354.187 164.1 345.967 168.59 337.027 168.59ZM277.318 167.59H337.038C345.638 167.59 353.537 163.27 358.177 156.03C362.817 148.79 363.447 139.81 359.867 131.99C359.677 131.54 341.537 88 330.307 64.77C324.017 51.76 313.288 45.8 302.978 49.6C297.988 51.44 287.698 61.21 291.878 74.5L304.867 116.32C305.067 116.96 304.957 117.63 304.557 118.17C304.167 118.7 303.557 119.01 302.897 119.01H293.177L277.318 167.59Z" fill="#505052"/>
<path d="M306.548 123.92C306.338 123.92 306.138 123.78 306.068 123.57L303.828 116.29C303.748 116.03 303.898 115.75 304.158 115.67C304.418 115.59 304.698 115.74 304.778 116L307.018 123.28C307.098 123.54 306.948 123.82 306.688 123.9C306.648 123.92 306.598 123.92 306.548 123.92Z" fill="#505052"/>
<path d="M262.728 11.24C277.928 11.24 294.158 13.02 295.088 19.28C295.958 25.14 290.958 26.85 291.398 30.98C291.728 34.07 296.368 31.03 297.178 37.66C298.288 46.72 280.318 67.71 269.888 66.41C257.408 64.84 262.728 11.24 262.728 11.24Z" fill="#FF6D54"/>
<path d="M270.838 66.96C270.488 66.96 270.158 66.94 269.828 66.9C257.008 65.3 262.008 13.4 262.228 11.19L262.268 10.74H262.718C274.518 10.74 294.488 11.84 295.578 19.2C296.088 22.62 294.708 24.71 293.488 26.55C292.538 27.99 291.708 29.24 291.888 30.92C291.978 31.8 292.458 31.98 293.518 32.28C295.048 32.72 297.148 33.33 297.668 37.59C298.338 43.04 292.518 52.05 286.418 58.14C280.748 63.81 275.148 66.96 270.838 66.96ZM263.178 11.74C262.948 14.19 261.918 26.21 262.128 38.24C262.428 55.74 265.128 65.31 269.958 65.91C274.008 66.42 279.898 63.25 285.728 57.44C292.638 50.55 297.248 42.25 296.688 37.72C296.248 34.12 294.658 33.66 293.248 33.25C292.228 32.96 291.068 32.62 290.898 31.03C290.688 29 291.638 27.54 292.658 26.01C293.828 24.23 295.048 22.39 294.598 19.35C293.878 14.55 282.438 11.78 263.178 11.74Z" fill="#505052"/>
<path d="M289.657 36.4999C289.387 36.4999 289.167 36.2899 289.157 36.0199C289.147 35.8299 289.027 31.2899 292.207 26.6299C292.367 26.3999 292.677 26.3399 292.897 26.4999C293.127 26.6599 293.187 26.9699 293.027 27.1899C290.047 31.5699 290.157 35.9399 290.157 35.9899C290.167 36.2699 289.947 36.4999 289.677 36.5099C289.667 36.4999 289.657 36.4999 289.657 36.4999Z" fill="#505052"/>
<path d="M286.838 229.4H244.838C244.558 229.4 244.338 229.18 244.338 228.9C244.338 228.62 244.558 228.4 244.838 228.4H286.838C287.118 228.4 287.338 228.62 287.338 228.9C287.338 229.18 287.108 229.4 286.838 229.4Z" fill="#505052"/>
<path d="M102.439 229.4H32.7188C32.4387 229.4 32.2188 229.18 32.2188 228.9C32.2188 228.62 32.4387 228.4 32.7188 228.4H102.439C102.719 228.4 102.939 228.62 102.939 228.9C102.939 229.18 102.709 229.4 102.439 229.4Z" fill="#505052"/>
<path d="M94.8679 273C88.5979 273 82.9979 270.96 79.2179 267.23C76.0879 264.14 74.5279 260.26 74.8479 256.31C75.2279 251.53 77.1879 247.47 79.9479 244.17C74.9479 243.64 70.1279 242.55 66.5279 240.98C59.8579 238.08 56.3379 233.74 56.3379 228.42C56.3379 222.62 58.9879 218.62 64.0179 216.85C74.4679 213.18 91.9879 220.19 98.4579 228.28C98.6279 228.5 98.5979 228.81 98.3779 228.98C98.1579 229.15 97.8479 229.12 97.6779 228.9C90.1379 219.48 72.7579 214.84 64.3479 217.79C59.6979 219.42 57.3379 223 57.3379 228.41C57.3379 234.58 62.5579 238.15 66.9279 240.05C70.9879 241.82 75.8479 242.87 80.6779 243.32C85.4779 238.07 92.2579 234.97 97.3879 234.3C101.068 233.82 103.558 234.62 104.218 236.5C104.738 237.97 104.338 239.38 103.068 240.56C99.3779 243.99 90.1079 245.04 81.1479 244.27C78.2879 247.51 76.2179 251.56 75.8379 256.37C75.5479 260.02 76.9979 263.62 79.9179 266.5C84.0379 270.57 90.4679 272.52 97.5379 271.86C118.408 269.92 135.748 248.77 143.678 228.67C143.778 228.41 144.068 228.29 144.328 228.39C144.588 228.49 144.708 228.78 144.608 229.04C136.568 249.43 118.928 270.88 97.6279 272.86C96.6879 272.96 95.7679 273 94.8679 273ZM81.9279 243.44C90.8179 244.07 99.3679 242.65 102.378 239.85C103.368 238.93 103.658 237.95 103.268 236.85C102.778 235.47 100.628 234.9 97.5079 235.31C92.7479 235.93 86.4979 238.73 81.9279 243.44Z" fill="#505052"/>
<path d="M298.497 118.52L282.267 168.09C281.627 170.08 279.778 171.42 277.698 171.42H270.478C266.068 171.42 262.167 174.27 260.837 178.48L244.827 228.91H102.438L107.548 212.8L120.677 171.43V171.42H95.1075C95.0275 171.19 94.1075 168.42 92.6875 164.1L101.037 138.81C105.527 124.9 118.478 115.47 133.098 115.47H156.188C156.248 115.47 156.297 115.49 156.357 115.49H253.457C253.507 115.49 253.557 115.47 253.607 115.47H296.277C297.867 115.47 298.988 117.01 298.497 118.52Z" fill="#A2E6CB"/>
<path d="M245.188 229.41H101.758L119.998 171.92H94.7482L94.6282 171.58C94.5482 171.34 93.6082 168.53 92.2082 164.25L92.1582 164.09L100.558 138.64C105.128 124.48 118.208 114.96 133.088 114.96L253.448 114.98C253.478 114.97 253.538 114.96 253.598 114.96H296.268C297.188 114.96 298.028 115.38 298.558 116.13C299.098 116.87 299.238 117.8 298.958 118.67L282.728 168.24C282.018 170.44 279.998 171.91 277.678 171.91H270.458C266.248 171.91 262.568 174.61 261.288 178.62L245.188 229.41ZM103.118 228.41H244.458L260.358 178.32C261.768 173.89 265.828 170.92 270.478 170.92H277.698C279.578 170.92 281.218 169.72 281.788 167.94L298.018 118.37C298.198 117.81 298.108 117.21 297.758 116.73C297.408 116.25 296.868 115.98 296.268 115.98H253.598C253.568 115.99 253.508 116 253.448 116H156.298L156.168 115.98H133.078C118.628 115.98 105.938 125.22 101.498 138.97L93.1982 164.11C94.3582 167.62 95.1582 170.06 95.4482 170.93H121.158L121.138 171.59L103.118 228.41Z" fill="#505052"/>
<path d="M253.667 65C254.157 63.49 253.027 61.95 251.447 61.95H208.767C204.427 61.95 200.787 71.38 196.297 85.29L186.977 113.49C186.587 114.68 185.467 115.49 184.207 115.49H169.527C180.347 124.52 194.257 129.94 209.447 129.94C224.637 129.94 238.557 124.52 249.377 115.49H240.167C238.617 115.49 237.527 113.98 238.017 112.51C241.617 101.67 253.667 65 253.667 65Z" fill="#FFD561"/>
<path d="M209.458 130.44C194.768 130.44 180.468 125.27 169.218 115.87L168.158 114.99H184.218C185.258 114.99 186.178 114.32 186.508 113.33L195.828 85.13C200.778 69.77 204.308 61.45 208.778 61.45H251.458C252.378 61.45 253.208 61.87 253.748 62.62C254.288 63.36 254.438 64.29 254.158 65.16C254.038 65.53 242.078 101.96 238.508 112.67C238.328 113.21 238.418 113.79 238.748 114.26C239.088 114.73 239.608 114.99 240.188 114.99H250.778L249.718 115.87C238.448 125.26 224.158 130.44 209.458 130.44ZM170.938 115.99C181.838 124.67 195.458 129.44 209.458 129.44C223.458 129.44 237.078 124.67 247.988 115.99H240.178C239.278 115.99 238.458 115.57 237.928 114.84C237.398 114.11 237.268 113.21 237.548 112.35C241.108 101.66 253.038 65.31 253.188 64.84C253.368 64.28 253.278 63.68 252.928 63.2C252.578 62.72 252.038 62.45 251.448 62.45H208.768C204.538 62.45 200.678 73.3299 196.768 85.4399L187.448 113.64C186.988 115.04 185.688 115.98 184.208 115.98H170.938V115.99Z" fill="#505052"/>
<path d="M240.177 115.99H224.938C224.657 115.99 224.438 115.77 224.438 115.49C224.438 115.21 224.657 114.99 224.938 114.99H240.177C240.457 114.99 240.677 115.21 240.677 115.49C240.677 115.77 240.447 115.99 240.177 115.99Z" fill="#505052"/>
<path d="M206.778 45.3799C206.408 38.3699 207.808 31.0399 211.198 24.1399C221.098 3.97995 244.208 -4.95005 262.828 4.19995C279.478 12.3699 286.888 32.2299 281.208 50.7499C280.528 52.9299 207.498 58.8499 206.778 45.3799Z" fill="#FF6D54"/>
<path d="M243.348 54.41C236.038 54.41 228.918 54.12 223.258 53.43C212.198 52.07 206.488 49.37 206.278 45.41C205.888 38.1 207.438 30.67 210.748 23.92C215.588 14.06 223.688 6.52996 233.558 2.70996C243.438 -1.11003 253.918 -0.740036 263.048 3.73996C279.718 11.93 287.558 31.75 281.678 50.88C281.158 52.6 261.668 54.41 243.348 54.41ZM207.278 45.35C207.368 46.99 208.748 48.43 211.378 49.61C226.678 56.49 277.828 52.34 280.758 50.49C286.428 31.86 278.808 12.6 262.608 4.63997C253.728 0.279965 243.538 -0.0700347 233.918 3.63997C224.288 7.35997 216.368 14.72 211.638 24.35C208.408 30.95 206.898 38.21 207.278 45.35Z" fill="#505052"/>
<path d="M222.107 32.96C223.197 25.79 232.797 17.47 242.087 15.15C250.777 12.98 258.657 15.8 263.157 21.67C275.317 37.53 257.297 62.72 254.037 62.72C237.517 62.71 221.297 38.33 222.107 32.96Z" fill="white"/>
<path d="M254.037 63.2099C243.907 63.2099 234.967 54.5699 230.537 49.4199C225.087 43.0799 221.167 35.8199 221.617 32.8799L222.107 32.9499L221.617 32.8799C222.717 25.6099 232.227 17.0999 241.967 14.6599C250.477 12.5299 258.757 15.0999 263.557 21.3599C271.647 31.8999 266.167 45.9099 263.437 51.4499C260.337 57.7099 255.947 63.2099 254.037 63.2099ZM247.817 14.9299C245.987 14.9299 244.107 15.1599 242.207 15.6299C232.977 17.9399 223.627 26.2299 222.597 33.0299C222.247 35.3399 225.657 42.2199 231.287 48.7699C238.637 57.3099 246.927 62.2099 254.027 62.2099C255.047 62.2099 259.147 57.8499 262.527 50.9999C270.477 34.8899 265.337 25.3299 262.757 21.9599C259.267 17.4199 253.827 14.9299 247.817 14.9299Z" fill="#505052"/>
<path d="M249.858 76.4999C249.858 76.4999 260.008 48.5399 257.188 48.3199C243.438 47.2599 264.058 27.5899 258.658 26.1699C254.528 25.0799 249.368 29.0999 238.788 29.0999C232.358 29.0999 239.118 21.8799 237.318 21.8799C231.118 21.8799 225.268 26.1699 214.998 34.6399C205.518 42.4599 197.518 51.3499 187.708 63.0299C180.758 71.3099 184.048 83.9899 197.418 83.9899C201.318 83.9899 205.718 83.9999 208.648 83.9999C217.548 83.9999 225.368 81.1799 225.368 81.1799" fill="#FFD561"/>
<path d="M208.648 84.4999L203.808 84.4899C201.738 84.4899 199.508 84.4799 197.418 84.4799C191.458 84.4799 186.848 81.9399 184.778 77.4999C182.638 72.8999 183.638 67.0899 187.328 62.6999C197.268 50.8699 205.308 41.9899 214.678 34.2499C224.388 26.2399 230.748 21.3799 237.308 21.3799C237.718 21.3799 237.918 21.5999 237.998 21.7299C238.318 22.2299 237.998 22.9299 237.458 24.0899C236.878 25.3399 236.078 27.0599 236.618 27.9099C236.918 28.3699 237.638 28.6099 238.778 28.6099C244.368 28.6099 248.408 27.4799 251.648 26.5799C254.488 25.7899 256.728 25.1599 258.778 25.6999C259.478 25.8899 259.788 26.3099 259.928 26.6399C260.568 28.1599 258.988 30.9299 256.998 34.4399C254.718 38.4599 251.868 43.4599 253.218 45.9899C253.788 47.0599 255.138 47.6799 257.228 47.8399C257.508 47.8599 257.758 48.0099 257.918 48.2599C259.588 50.8399 251.888 72.3899 250.328 76.6899C250.238 76.9499 249.948 77.0799 249.688 76.9899C249.428 76.8999 249.298 76.6099 249.388 76.3499C253.958 63.7599 258.078 50.0199 257.068 48.7999C254.688 48.65 253.068 47.8499 252.328 46.4599C250.728 43.4499 253.598 38.3999 256.128 33.9499C257.768 31.0699 259.458 28.0999 259.008 27.0299C258.958 26.9099 258.858 26.7599 258.528 26.6699C256.738 26.1999 254.718 26.7699 251.918 27.5499C248.618 28.4699 244.508 29.6199 238.778 29.6199C237.258 29.6199 236.268 29.2399 235.778 28.4599C234.938 27.1499 235.838 25.2199 236.558 23.6799C236.758 23.2599 237.008 22.7199 237.098 22.3999C230.938 22.5099 224.738 27.2699 215.318 35.0399C206.008 42.7299 197.998 51.5799 188.098 63.3599C184.658 67.4499 183.708 72.8399 185.688 77.0899C187.588 81.1599 191.858 83.4999 197.418 83.4999C199.508 83.4999 201.738 83.5 203.808 83.5099L208.648 83.5199C217.368 83.5199 225.128 80.75 225.198 80.7299C225.458 80.6399 225.748 80.77 225.838 81.03C225.928 81.29 225.798 81.58 225.538 81.67C225.458 81.67 217.538 84.4999 208.648 84.4999Z" fill="#505052"/>
<path d="M218.798 53.13C213.678 53.13 207.648 52.65 205.688 50.8C205.358 50.49 205.378 50.17 205.418 50C205.598 49.27 206.698 48.92 209.858 48.01C214.028 46.81 221.018 44.8 226.808 40.58C227.028 40.42 227.348 40.47 227.508 40.69C227.668 40.91 227.618 41.23 227.398 41.39C221.468 45.72 214.378 47.76 210.138 48.97C208.608 49.41 207.018 49.87 206.508 50.18C209.418 52.51 222.008 52.29 225.948 51.78C226.228 51.75 226.468 51.94 226.508 52.21C226.548 52.48 226.348 52.73 226.078 52.77C224.828 52.94 221.988 53.13 218.798 53.13Z" fill="#505052"/>
<path d="M203.267 54.51C204.137 54.41 207.047 55.53 211.247 56.3C219.497 57.82 225.797 57.39 227.647 57.82C228.597 58.04 219.177 62.71 208.967 61.08C203.177 60.16 202.777 54.57 203.267 54.51Z" fill="white"/>
<path d="M213.378 61.92C211.908 61.92 210.398 61.82 208.898 61.58C204.058 60.81 202.578 56.8 202.628 54.99C202.648 54.24 202.958 54.05 203.228 54.02C203.748 53.96 204.638 54.2 206.098 54.59C207.428 54.94 209.248 55.43 211.358 55.82C216.648 56.8 221.168 56.96 224.158 57.07C225.858 57.13 227.078 57.18 227.788 57.34L228.258 57.45L228.228 58C228.008 59 221.188 61.92 213.378 61.92ZM203.618 55.02C203.618 55.48 203.758 56.52 204.438 57.65C205.108 58.76 206.448 60.17 209.058 60.59C216.808 61.83 223.958 59.36 226.418 58.17C225.788 58.13 225.008 58.1 224.108 58.06C221.088 57.95 216.528 57.78 211.168 56.79C209.018 56.39 207.178 55.9 205.838 55.54C204.908 55.31 204.088 55.09 203.618 55.02Z" fill="#505052"/>
<path d="M238.838 48C237.998 48 237.228 47.78 236.658 47.37C235.548 46.59 235.308 45.3 235.998 43.91C236.118 43.66 236.418 43.56 236.668 43.69C236.918 43.81 237.018 44.11 236.888 44.36C236.428 45.29 236.548 46.07 237.238 46.55C238.368 47.35 240.608 47.14 242.278 45.42C242.468 45.22 242.788 45.22 242.988 45.41C243.188 45.6 243.188 45.92 242.998 46.12C241.728 47.43 240.188 48 238.838 48Z" fill="#505052"/>
<path d="M213.847 42.99C213.337 42.99 212.857 42.87 212.477 42.65C211.657 42.18 211.037 41.07 211.767 39.38C211.877 39.13 212.167 39.01 212.427 39.12C212.677 39.23 212.797 39.52 212.687 39.78C212.447 40.33 212.167 41.32 212.977 41.79C213.887 42.31 215.607 41.87 216.717 40.37C216.877 40.15 217.197 40.1 217.417 40.27C217.637 40.43 217.687 40.75 217.517 40.97C216.477 42.36 215.047 42.99 213.847 42.99Z" fill="#505052"/>
<path d="M270.979 88.56C269.679 89.43 267.289 90.19 264.569 90.19C250.889 90.19 245.139 77.82 245.139 65.11C245.139 52.39 252.249 40.02 263.869 40.02C266.339 40.02 269.249 41.54 268.569 42.15C258.669 43.02 250.859 52.97 250.859 65.11C250.859 77.24 265.219 87.8 270.979 88.56Z" fill="white"/>
<path d="M264.569 90.69C249.859 90.69 244.639 76.91 244.639 65.11C244.639 52.53 251.829 39.52 263.869 39.52C265.979 39.52 268.719 40.63 269.109 41.64C269.229 41.96 269.159 42.29 268.909 42.52L268.789 42.63L268.619 42.64C258.939 43.49 251.369 53.36 251.369 65.1C251.369 76.86 265.179 87.28 271.059 88.06L272.379 88.23L271.269 88.97C270.019 89.8 267.609 90.69 264.569 90.69ZM263.869 40.52C252.459 40.52 245.639 53.02 245.639 65.11C245.639 76.45 250.599 89.69 264.569 89.69C266.599 89.69 268.329 89.26 269.539 88.75C262.869 86.75 250.359 76.53 250.359 65.11C250.359 53.1 258.019 42.97 267.899 41.72C267.239 41.23 265.539 40.52 263.869 40.52Z" fill="#505052"/>
<path d="M312.567 62.82C308.627 60.51 269.037 42.1 268.567 42.15C258.667 43.02 250.857 52.97 250.857 65.11C250.857 76.51 257.837 87.37 266.957 88.45C267.137 88.68 302.457 86.82 307.787 86.6C308.237 86.59 313.147 63.16 312.567 62.82Z" fill="#5A558D"/>
<path d="M266.897 88.95C257.777 87.86 250.357 77.17 250.357 65.11C250.357 52.85 258.337 42.55 268.527 41.65C268.637 41.64 269.027 41.58 289.487 51.15C299.437 55.8 310.787 61.2 312.827 62.39C313.207 62.61 313.467 62.76 311.687 71.82C310.737 76.64 309.587 81.96 308.887 84.77C308.357 86.87 308.257 87.09 307.817 87.11C306.117 87.18 301.387 87.41 295.707 87.69C272.497 88.84 267.937 89.04 266.907 88.91L266.897 88.95ZM267.147 87.97C268.747 88.03 284.887 87.22 295.657 86.69C301.037 86.42 305.577 86.2 307.487 86.12C308.367 83.68 312.077 65.32 312.127 63.14C307.297 60.44 270.527 43.37 268.527 42.65C258.887 43.56 251.367 53.4 251.367 65.1C251.367 76.67 258.397 86.92 267.027 87.95L267.147 87.97Z" fill="#505052"/>
<path d="M307.028 86.6C313.954 86.6 319.568 80.9856 319.568 74.06C319.568 67.1343 313.954 61.52 307.028 61.52C300.103 61.52 294.488 67.1343 294.488 74.06C294.488 80.9856 300.103 86.6 307.028 86.6Z" fill="white"/>
<path d="M307.028 87.1C299.838 87.1 293.988 81.25 293.988 74.06C293.988 66.87 299.838 61.02 307.028 61.02C314.218 61.02 320.068 66.87 320.068 74.06C320.078 81.25 314.228 87.1 307.028 87.1ZM307.028 62.02C300.388 62.02 294.988 67.42 294.988 74.06C294.988 80.7 300.388 86.1 307.028 86.1C313.668 86.1 319.068 80.7 319.068 74.06C319.078 67.42 313.668 62.02 307.028 62.02Z" fill="#505052"/>
<path d="M308.337 77.7C309.657 77.7 310.727 76.6299 310.727 75.31C310.727 73.99 309.657 72.92 308.337 72.92C307.017 72.92 305.947 73.99 305.947 75.31C305.947 76.6299 307.017 77.7 308.337 77.7Z" fill="#5A558D"/>
<path d="M308.337 78.2C306.747 78.2 305.447 76.9 305.447 75.31C305.447 73.72 306.747 72.42 308.337 72.42C309.927 72.42 311.227 73.72 311.227 75.31C311.227 76.9 309.927 78.2 308.337 78.2ZM308.337 73.42C307.297 73.42 306.447 74.27 306.447 75.31C306.447 76.35 307.297 77.2 308.337 77.2C309.377 77.2 310.227 76.35 310.227 75.31C310.227 74.27 309.377 73.42 308.337 73.42Z" fill="#505052"/>
<path d="M327.878 66.62C316.478 72.1 308.548 60.1 308.328 60.54C308.108 60.98 311.388 78.48 303.438 79.65C300.508 80.08 298.658 77.9099 298.658 77.9099C298.658 77.9099 293.228 79.86 290.518 74.98C290.518 74.98 288.348 76.76 285.088 74.44C280.958 71.51 280.528 65.0999 280.528 65.0999C280.528 65.0999 275.098 70.42 272.708 66.51C271.598 64.69 271.408 57.5 277.048 50.98C280.868 46.57 289.268 41.5199 298.058 41.3099C311.738 40.9799 321.188 48.6399 323.958 52.7099C325.538 55.0299 327.768 58.53 330.738 64.55" fill="#FFD561"/>
<path d="M302.668 80.21C300.538 80.21 299.068 79.01 298.518 78.48C297.298 78.81 292.898 79.66 290.358 75.67C289.478 76.12 287.458 76.73 284.808 74.84C281.478 72.48 280.458 68.06 280.158 66.1C279.008 67.05 276.728 68.67 274.708 68.41C273.698 68.29 272.888 67.73 272.298 66.76C271.128 64.85 270.738 57.51 276.688 50.64C280.788 45.91 289.448 41.01 298.068 40.8C312.938 40.45 322.118 49.07 324.398 52.42C325.998 54.77 328.218 58.26 331.208 64.32C331.328 64.57 331.228 64.87 330.978 64.99C330.728 65.11 330.428 65.01 330.308 64.76C327.338 58.75 325.148 55.31 323.558 52.98C320.508 48.49 310.908 41.48 298.078 41.8C289.748 42 281.388 46.73 277.428 51.29C271.898 57.67 272.118 64.56 273.138 66.23C273.568 66.93 274.118 67.32 274.818 67.41C276.718 67.65 279.338 65.55 280.178 64.73L280.948 63.97L281.018 65.05C281.018 65.11 281.488 71.26 285.368 74.02C288.258 76.07 290.118 74.64 290.198 74.58L290.658 74.21L290.948 74.72C293.428 79.18 298.278 77.5 298.488 77.42L298.808 77.3L299.038 77.56C299.108 77.64 300.748 79.51 303.368 79.13C309.628 78.2 308.348 65.89 307.928 61.84C307.798 60.62 307.788 60.48 307.888 60.29L308.008 60.06L308.278 60.01C308.598 59.96 308.758 60.13 309.398 60.82C311.638 63.23 318.448 70.58 327.668 66.15C327.918 66.03 328.218 66.14 328.338 66.38C328.458 66.63 328.348 66.93 328.108 67.05C321.638 70.16 315.188 68.39 308.938 61.78C309.388 66.1 310.718 79.06 303.528 80.12C303.228 80.19 302.938 80.21 302.668 80.21Z" fill="#505052"/>
<path d="M280.539 65.6C280.269 65.6 280.039 65.38 280.039 65.11C279.929 55.6 286.029 47.62 294.879 45.72C295.149 45.66 295.419 45.83 295.469 46.1C295.529 46.37 295.359 46.64 295.089 46.69C286.709 48.49 280.939 56.06 281.039 65.09C281.039 65.37 280.819 65.6 280.539 65.6Z" fill="#505052"/>
<path d="M290.528 75.7C290.358 75.7 290.188 75.61 290.098 75.45C289.098 73.7 287.038 66.42 289.588 59.67C291.478 54.65 295.398 51.09 301.238 49.1C301.498 49.01 301.778 49.15 301.868 49.41C301.958 49.67 301.818 49.96 301.558 50.04C296.018 51.93 292.308 55.29 290.528 60.02C288.108 66.44 290.038 73.31 290.978 74.95C291.118 75.19 291.028 75.49 290.788 75.63C290.698 75.68 290.608 75.7 290.528 75.7Z" fill="#505052"/>
<path d="M298.667 78.42C298.487 78.42 298.317 78.32 298.227 78.15C295.617 73.2 294.957 64.7 298.377 59.03C300.587 55.36 304.187 53.42 308.767 53.42C309.047 53.42 309.267 53.64 309.267 53.92C309.267 54.2 309.047 54.42 308.767 54.42C304.557 54.42 301.257 56.19 299.237 59.55C295.997 64.92 296.627 72.99 299.117 77.69C299.247 77.93 299.157 78.24 298.907 78.37C298.827 78.4 298.747 78.42 298.667 78.42Z" fill="#505052"/>
<path d="M309.398 235.02C305.998 235.02 303.808 231.47 303.358 225.22C302.878 218.53 304.638 208.79 308.838 200.36C305.448 194.97 300.828 190.95 295.248 190.38C286.548 189.47 279.598 194.29 275.068 200.22C275.158 200.39 275.248 200.57 275.338 200.75C278.778 207.58 279.358 215.41 276.698 218.96C275.548 220.49 273.888 221.1 271.888 220.73C269.028 220.2 267.698 217.21 268.338 212.75C268.868 209.08 270.788 204.39 273.888 200.16C270.178 193.51 264.418 189.74 257.928 189.74C257.898 189.74 257.868 189.74 257.828 189.74C257.558 189.74 257.328 189.52 257.328 189.24C257.328 188.96 257.548 188.74 257.828 188.74C257.858 188.74 257.898 188.74 257.928 188.74C264.678 188.74 270.658 192.56 274.548 199.3C279.268 193.29 286.428 188.48 295.348 189.4C301.068 189.99 305.808 193.99 309.338 199.39C313.788 190.97 320.748 184.07 330.438 183.2C342.418 182.12 352.928 184.7 361.058 190.66C362.478 184.32 365.188 178.19 369.528 173.26C374.468 167.66 380.488 163.9 386.748 161.6C379.848 155.45 375.308 147.64 376.578 139.3C377.608 132.52 381.918 125.87 388.908 120.13C383.528 117.91 379.638 114.67 377.598 110.6C375.638 106.69 375.598 101.97 376.788 97.1299C368.548 98.7299 361.618 97.8399 357.218 94.4799C351.098 89.8099 349.138 82.6499 349.558 75.4299C338.328 80.3699 323.878 82.2499 308.878 76.1899C308.618 76.0899 308.498 75.7999 308.598 75.5399C308.698 75.2799 308.998 75.1599 309.248 75.2599C325.188 81.6999 339.178 78.5899 348.108 74.8599C348.628 74.6399 349.138 74.4199 349.648 74.1899C350.248 67.8799 352.588 61.6399 355.478 57.0699C359.778 50.2699 364.888 47.3099 368.818 49.3299C371.568 50.7499 372.128 53.7699 370.358 57.6299C367.708 63.4099 360.468 70.3699 350.568 74.9699C350.038 82.0599 351.848 89.1299 357.818 93.6799C362.398 97.1799 369.538 97.5499 377.078 96.0199C379.768 86.5499 386.988 76.7699 393.798 71.6299C399.988 66.9599 405.528 66.0999 409.008 69.2799C411.988 71.9999 411.558 75.9699 407.798 80.4699C403.018 86.1899 393.558 92.0099 383.718 95.2899C381.698 95.9599 379.738 96.4999 377.838 96.9199C376.598 101.69 376.588 106.33 378.498 110.15C380.598 114.35 384.738 117.38 389.848 119.37C391.438 118.12 393.158 116.92 395.008 115.77C403.778 110.31 414.748 106.57 422.958 106.26C429.248 106.02 433.138 107.79 433.928 111.23C434.798 115 431.698 118.37 425.198 120.71C417.898 123.33 407.808 124.12 398.848 122.77C395.618 122.28 392.668 121.54 390.038 120.56C383.608 125.68 378.698 132.08 377.578 139.44C376.298 147.89 381.028 155.4 387.828 161.21C399.788 157.16 412.458 158.34 420.038 162.21C424.328 164.4 426.428 167.28 425.788 170.1C424.888 174.09 419.738 175.61 412.018 174.15C403.938 172.63 394.668 168.32 387.608 162.32C381.308 164.55 375.238 168.27 370.278 173.9C365.948 178.82 363.278 184.95 361.918 191.28C362.508 191.74 363.088 192.22 363.658 192.72C372.858 200.85 375.388 210.84 376.048 214.76C377.198 221.57 375.828 226.68 372.638 227.48C369.748 228.2 366.878 226.49 364.548 222.67C360.458 215.94 358.458 203.56 360.828 191.74C350.968 184.87 338.458 183.46 330.538 184.17C321.028 185.02 314.238 191.93 309.948 200.31C314.248 207.37 316.558 216.52 316.388 223.65C316.218 230.64 313.768 234.78 309.678 235C309.578 235.02 309.488 235.02 309.398 235.02ZM309.438 201.34C305.528 209.45 303.898 218.73 304.358 225.15C304.558 227.89 305.418 234.21 309.618 234.01C314.598 233.74 315.308 226.66 315.388 223.63C315.548 216.84 313.418 208.14 309.438 201.34ZM361.698 192.39C359.508 203.81 361.458 215.69 365.398 222.17C367.478 225.59 369.958 227.14 372.388 226.53C374.958 225.89 376.078 221.02 375.058 214.95C373.278 204.35 368.118 197.15 361.698 192.39ZM274.408 201.11C271.588 205.08 269.828 209.44 269.338 212.88C269.068 214.74 268.798 219.13 272.078 219.74C273.698 220.04 274.988 219.58 275.908 218.36C278.318 215.15 277.678 207.61 274.458 201.2C274.438 201.17 274.428 201.14 274.408 201.11ZM388.718 161.97C395.968 167.86 405.278 171.88 412.208 173.19C419.328 174.53 424.048 173.3 424.808 169.9C425.338 167.56 423.428 165.09 419.578 163.13C412.308 159.41 400.218 158.24 388.718 161.97ZM391.018 119.82C401.528 123.51 415.638 123.11 424.858 119.79C430.738 117.68 433.688 114.65 432.958 111.48C432.048 107.54 426.328 107.16 422.998 107.29C414.468 107.61 401.088 112.18 391.018 119.82ZM403.958 68.3999C401.238 68.3999 397.958 69.7599 394.408 72.4399C387.848 77.3899 380.868 86.7299 378.148 95.7999C389.418 93.2499 401.378 86.5999 407.028 79.8299C409.408 76.9899 411.558 72.9799 408.328 70.0199C407.148 68.9399 405.668 68.3999 403.958 68.3999ZM366.288 49.7399C363.208 49.7399 359.518 52.5999 356.338 57.6199C353.608 61.9399 351.378 67.7899 350.708 73.7199C360.608 68.9799 367.198 62.1799 369.468 57.2299C370.358 55.2899 371.408 51.7899 368.378 50.2299C367.728 49.8999 367.028 49.7399 366.288 49.7399Z" fill="#505052"/>
<path d="M51.3981 87.9199C51.1181 87.9199 50.8981 87.6999 50.8981 87.4199C50.8981 86.1099 50.9081 84.7199 50.9281 83.2599C51.0481 70.8199 51.2181 53.7799 43.3781 45.8599C40.5081 42.9699 36.7081 41.4999 32.0781 41.4999C31.7981 41.4999 31.5781 41.2799 31.5781 40.9999C31.5781 40.7199 31.7981 40.4999 32.0781 40.4999C36.9881 40.4999 41.0381 42.0699 44.0981 45.1599C52.2381 53.3799 52.0681 70.6599 51.9381 83.2799C51.9281 84.7399 51.9081 86.1299 51.9081 87.4299C51.8981 87.6899 51.6681 87.9199 51.3981 87.9199Z" fill="#505052"/>
<path d="M51.6076 81.23C53.8876 65.43 67.7276 57.07 68.2276 58.91C70.6676 68.03 51.5376 81.71 51.6076 81.23Z" fill="#A2E6CB"/>
<path d="M51.5984 81.75C51.4984 81.75 51.4384 81.71 51.3584 81.67L51.0684 81.5L51.1084 81.16C53.1384 67.08 64.4484 58.36 67.6684 58.17C68.4584 58.13 68.6684 58.63 68.7084 58.79C70.8884 66.92 57.1284 77.89 54.3484 80C52.4584 81.43 51.8884 81.75 51.5984 81.75ZM67.7684 59.16C67.5084 59.16 66.7284 59.34 65.2984 60.24C61.2884 62.75 54.1784 69.73 52.2784 80.26C55.8384 77.76 69.6284 66.71 67.7684 59.16C67.7784 59.16 67.7684 59.16 67.7684 59.16Z" fill="#505052"/>
<path d="M51.6088 81.2299C50.6288 71.4599 41.9188 62.9799 41.8388 63.9599C41.0288 73.5699 51.7088 82.1999 51.6088 81.2299Z" fill="#A2E6CB"/>
<path d="M51.5481 81.7999C51.3181 81.7999 51.0881 81.6799 50.8581 81.5399C48.5481 80.1399 40.6181 72.4699 41.3481 63.9199C41.3781 63.6099 41.6181 63.3899 41.9281 63.3799C43.4381 63.3799 51.1981 72.0099 52.1181 81.1799L52.1481 81.4899L51.8581 81.7199C51.7581 81.7799 51.6581 81.7999 51.5481 81.7999ZM42.2981 64.6599C42.0781 72.1299 48.8281 78.83 51.0081 80.45C49.8981 72.76 44.1481 66.1199 42.2981 64.6599Z" fill="#505052"/>
<path d="M120.357 172.42L107.547 212.79H85.7668C63.5968 212.79 44.9568 196.14 42.4668 174.1L37.7168 131.99C37.7168 131.99 31.5468 131.05 27.7168 122.43C22.5068 110.71 14.4768 99.85 16.0968 95.61C17.1268 92.94 20.2268 93.55 20.2268 93.55C20.2268 93.55 18.0568 90.51 19.3568 88.12C21.0568 85 25.2768 86.71 25.4368 86.81C25.9268 87.14 23.0468 83.12 25.3368 81.17C28.5368 78.42 33.1468 82.8 33.1468 82.8C33.1468 82.8 33.2568 80.73 35.2168 80.3C41.9668 78.8 46.5668 93.6 46.5668 93.6C46.5668 93.6 49.9868 93.6 54.5468 93.6C69.2068 93.6 73.5968 103.68 77.1868 115.59C81.4468 129.75 88.8768 152.49 92.6868 164.09C94.1068 168.41 95.0268 171.18 95.1068 171.41C95.1068 171.42 95.1068 171.42 95.1068 171.42H119.637C120.147 171.43 120.517 171.93 120.357 172.42Z" fill="#FFD561"/>
<path d="M107.907 213.3H85.7574C63.3074 213.3 44.4774 196.48 41.9574 174.17L37.2474 132.42C35.7974 132.06 30.6374 130.29 27.2474 122.65C25.4174 118.54 23.2074 114.47 21.2574 110.88C17.4674 103.91 14.4874 98.41 15.6174 95.45C16.3374 93.59 18.0074 93.04 19.2974 93C18.6974 91.85 17.9074 89.74 18.9074 87.9C19.4574 86.89 20.2974 86.22 21.4074 85.93C22.5574 85.63 23.7574 85.8 24.5974 86.01C24.0274 84.66 23.2674 82.28 25.0074 80.8C27.7874 78.41 31.3674 80.73 32.8274 81.89C33.1174 81.06 33.7874 80.11 35.0974 79.82C41.6974 78.35 46.1474 90.78 46.9174 93.11H54.5374C69.6674 93.11 74.1074 103.68 77.6574 115.46C80.7674 125.78 85.9774 142.1 93.1574 163.95C94.3474 167.56 95.1774 170.07 95.4674 170.94H119.627C120.037 170.94 120.407 171.13 120.647 171.46C120.887 171.79 120.957 172.2 120.827 172.59L107.907 213.3ZM19.4574 93.99C18.5974 93.99 17.1674 94.24 16.5674 95.79C15.5974 98.32 18.6374 103.91 22.1574 110.39C24.1174 114 26.3374 118.09 28.1774 122.23C31.8574 130.5 37.7374 131.49 37.7974 131.5L38.1774 131.56L42.9674 174.05C45.4274 195.85 63.8274 212.3 85.7674 212.3H107.177L119.877 172.27C119.917 172.16 119.867 172.07 119.837 172.03C119.807 171.99 119.737 171.92 119.627 171.92H94.5974V171.49C94.4174 170.95 93.5174 168.24 92.1974 164.24C85.0174 142.38 79.7974 126.06 76.6974 115.73C73.2574 104.33 68.9774 94.1 54.5374 94.1H46.1874L46.0774 93.75C46.0374 93.61 41.5374 79.4 35.3174 80.79C33.7574 81.13 33.6474 82.76 33.6374 82.83L33.5674 83.9L32.7874 83.17C32.7474 83.13 28.4674 79.13 25.6474 81.56C24.2074 82.79 25.2874 85.15 25.7574 86.16C25.9774 86.63 26.1174 86.95 25.7974 87.22L25.5074 87.47L25.1374 87.24C25.1274 87.24 21.2774 85.61 19.7774 88.37C18.6474 90.45 20.5974 93.24 20.6174 93.27L21.3374 94.28L20.1174 94.05C20.0974 94.04 19.8274 93.99 19.4574 93.99Z" fill="#505052"/>
<path d="M97.1387 177.86C96.9287 177.86 96.7387 177.73 96.6687 177.52L94.4687 171.14C94.3787 170.88 94.5187 170.59 94.7787 170.5C95.0387 170.41 95.3287 170.55 95.4187 170.81L97.6187 177.19C97.7087 177.45 97.5687 177.74 97.3087 177.83C97.2487 177.86 97.1987 177.86 97.1387 177.86Z" fill="#505052"/>
<path d="M39.1971 132.51C38.6971 132.51 38.1971 132.51 37.7071 132.5C37.4271 132.5 37.2071 132.27 37.2171 131.99C37.2271 131.71 37.4271 131.49 37.7271 131.5C41.1471 131.55 44.8271 131.39 44.8671 131.39C45.1471 131.38 45.3771 131.59 45.3871 131.87C45.3971 132.15 45.1871 132.38 44.9071 132.39C44.8671 132.39 42.1471 132.51 39.1971 132.51Z" fill="#505052"/>
<path d="M40.2071 105.02C39.9771 105.02 39.7671 104.86 39.7171 104.62C38.3071 97.96 32.8871 91.47 25.1971 87.25C24.9571 87.12 24.8671 86.81 24.9971 86.57C25.1271 86.33 25.4371 86.24 25.6771 86.37C33.6171 90.72 39.2271 97.47 40.6971 104.41C40.7571 104.68 40.5771 104.95 40.3071 105C40.2771 105.02 40.2471 105.02 40.2071 105.02Z" fill="#505052"/>
<path d="M42.5984 101.11C42.3584 101.11 42.1484 100.94 42.1084 100.7C41.3384 96.3 36.7984 87.16 32.7984 83.16C32.5984 82.96 32.5984 82.65 32.7984 82.45C32.9984 82.25 33.3084 82.25 33.5084 82.45C37.6984 86.64 42.2884 95.89 43.0984 100.53C43.1484 100.8 42.9684 101.06 42.6884 101.11C42.6584 101.11 42.6284 101.11 42.5984 101.11Z" fill="#505052"/>
<path d="M62.509 114.19L40.059 108.42L37.709 87.6899H65.509L62.509 114.19Z" fill="#5A558D"/>
<path d="M62.9484 114.81L39.5984 108.82L37.1484 87.1899H66.0684L62.9484 114.81ZM40.5184 108.03L62.0784 113.56L64.9484 88.1899H38.2684L40.5184 108.03Z" fill="#505052"/>
<path d="M32.0678 40.99C33.1578 30.35 51.6178 15.8 56.1778 21.66C63.7278 31.37 31.8278 43.29 32.0678 40.99Z" fill="#FF6D54"/>
<path d="M32.6178 41.77C32.3778 41.77 32.1878 41.74 32.0478 41.69C31.7178 41.56 31.5278 41.27 31.5678 40.94L32.0678 40.99L31.5678 40.94C32.3978 32.84 42.9878 22.39 50.5878 20.2C53.3078 19.42 55.3778 19.82 56.5678 21.35C58.3678 23.67 58.2278 26.36 56.1578 29.14C51.3778 35.56 36.3278 41.77 32.6178 41.77ZM32.5878 40.79C34.7278 40.84 50.1178 35.54 55.3378 28.57C57.1778 26.11 57.3178 23.95 55.7778 21.97C54.6178 20.47 52.4578 20.71 50.8578 21.17C43.7778 23.2 33.5678 33.2 32.5878 40.79Z" fill="#505052"/>
<path d="M32.0667 40.9899C30.8367 44.0599 55.0867 65.0999 59.4367 53.5899C63.4367 42.9799 32.9367 38.8199 32.0667 40.9899Z" fill="#FF6D54"/>
<path d="M54.4675 57.4999C47.7275 57.4999 37.0175 49.1799 33.0575 44.2199C31.3675 42.0999 31.4175 41.2599 31.5975 40.8099C32.3575 38.8999 43.8175 40.3099 51.3575 43.2499C58.4875 46.0199 61.4475 49.6599 59.8975 53.7699C59.1075 55.8699 57.6575 57.0899 55.5775 57.4199C55.2275 57.4699 54.8575 57.4999 54.4675 57.4999ZM32.5175 41.2099C32.4975 41.3499 32.5375 41.9599 33.8375 43.5899C37.8875 48.6699 49.1675 57.4099 55.4175 56.4199C57.1375 56.1499 58.2875 55.1599 58.9575 53.3999C59.8875 50.9299 58.8075 48.6299 55.7475 46.5599C48.4875 41.6699 33.8375 40.2199 32.5175 41.2099Z" fill="#505052"/>
<path d="M32.0689 40.99C29.0089 41.23 25.2989 70.44 33.3689 69.66C40.0989 69.01 34.8889 40.78 32.0689 40.99Z" fill="#FF6D54"/>
<path d="M33.0484 70.18C31.8784 70.18 30.8784 69.61 30.0884 68.49C26.2984 63.11 28.3484 46.59 30.4784 42.06C30.9584 41.04 31.4484 40.54 32.0184 40.5C34.4984 40.33 36.4784 51.1 36.9584 56.64C37.3784 61.52 37.4884 69.77 33.4084 70.16C33.2884 70.17 33.1684 70.18 33.0484 70.18ZM32.0984 41.49C30.7084 41.7 28.2484 53.19 29.1984 62.04C29.5584 65.44 30.5584 69.43 33.3184 69.16C35.4084 68.96 35.9584 65.16 36.0984 62.91C36.6584 54.17 33.5184 41.85 32.0984 41.49Z" fill="#505052"/>
<path d="M32.0664 40.9899C30.9764 39.2499 2.64635 56.4599 9.25635 64.0099C15.3363 70.9699 33.4064 43.1399 32.0664 40.9899Z" fill="#FF6D54"/>
<path d="M11.667 65.62C10.377 65.62 9.48697 65.03 8.88697 64.34C7.62697 62.9 7.42697 61.07 8.28697 58.9C11.487 50.93 28.277 40.66 31.567 40.37C32.117 40.32 32.367 40.53 32.487 40.72C33.857 42.91 23.737 58.24 16.687 63.48C14.567 65.06 12.927 65.62 11.667 65.62ZM31.647 41.36C29.457 41.42 14.487 50.14 9.92697 57.85C8.47697 60.29 8.38697 62.26 9.63697 63.69C10.727 64.93 12.307 64.95 14.487 63.74C21.837 59.63 31.727 43.67 31.647 41.36ZM31.777 41.37H31.787H31.777Z" fill="#505052"/>
<path d="M32.0668 40.99C34.3168 40.71 39.6668 11.45 30.1168 11.23C20.5568 11.02 28.5868 41.43 32.0668 40.99Z" fill="#FF6D54"/>
<path d="M31.9871 41.5C31.4071 41.5 30.8171 41.05 30.1971 40.14C26.9471 35.37 23.0871 18.99 26.3071 13.07C27.1571 11.51 28.4971 10.72 30.1271 10.74C33.6671 10.82 35.7171 14.42 36.0571 21.16C36.4671 29.27 34.1571 41.24 32.1371 41.49C32.0771 41.49 32.0271 41.5 31.9871 41.5ZM30.0071 11.74C28.7671 11.74 27.8371 12.33 27.1871 13.55C24.1771 19.09 27.9571 35.09 31.0271 39.58C31.5071 40.28 31.8371 40.48 31.9771 40.5C33.2771 39.57 36.5371 24.7 34.3971 16.47C33.5871 13.38 32.1471 11.79 30.1071 11.74C30.0671 11.74 30.0371 11.74 30.0071 11.74Z" fill="#505052"/>
<path d="M32.0677 40.99C33.3677 40.12 14.6978 14.7 9.69775 19.7C3.82775 25.57 30.5077 42.03 32.0677 40.99Z" fill="#FF6D54"/>
<path d="M31.9187 41.51C28.9387 41.51 15.6087 32.73 10.7887 26.85C8.1087 23.59 7.6287 21.06 9.3387 19.35C10.1887 18.5 11.3787 18.33 12.8787 18.84C19.6487 21.14 32.2487 37.85 32.6187 40.68C32.6787 41.12 32.4687 41.33 32.3387 41.41C32.2387 41.48 32.0987 41.51 31.9187 41.51ZM11.3487 19.55C10.8187 19.55 10.3887 19.72 10.0487 20.06C9.1687 20.94 9.1287 22.15 9.9187 23.75C13.2787 30.57 28.7287 39.84 31.5587 40.5C30.5387 37.69 19.5187 22.61 12.9287 19.92C12.3187 19.68 11.7987 19.55 11.3487 19.55Z" fill="#505052"/>
<path d="M32.0676 40.99C31.9376 42.07 0.357555 52.72 0.787555 40.99C1.20755 29.75 32.2776 39.26 32.0676 40.99Z" fill="#FF6D54"/>
<path d="M9.16787 46.95C8.56787 46.95 7.99787 46.93 7.45787 46.89C1.36787 46.4 0.19787 43.41 0.28787 40.98C0.36787 38.88 1.42787 37.31 3.43787 36.32C10.8179 32.69 29.1679 38.14 31.9879 40.14C32.1579 40.26 32.6179 40.59 32.5579 41.06C32.3779 42.53 17.9179 46.95 9.16787 46.95ZM10.3879 36.06C8.50787 36.06 6.76787 36.24 5.27787 36.68C2.67787 37.44 1.36787 38.85 1.28787 41.01C1.21787 42.92 2.05787 44.24 3.85787 45.05C10.7679 48.16 28.7179 42.33 31.3679 40.91C29.5579 39.67 18.7179 36.06 10.3879 36.06Z" fill="#505052"/>
<path d="M32.0681 45.2299C34.4098 45.2299 36.3081 43.3316 36.3081 40.9899C36.3081 38.6482 34.4098 36.7499 32.0681 36.7499C29.7264 36.7499 27.8281 38.6482 27.8281 40.9899C27.8281 43.3316 29.7264 45.2299 32.0681 45.2299Z" fill="#FFD561"/>
<path d="M32.0681 45.7299C29.4581 45.7299 27.3281 43.6099 27.3281 40.9999C27.3281 38.3899 29.4481 36.2599 32.0681 36.2599C34.6881 36.2599 36.8081 38.3799 36.8081 40.9999C36.8081 43.6199 34.6781 45.7299 32.0681 45.7299ZM32.0681 37.2599C30.0081 37.2599 28.3281 38.9399 28.3281 40.9999C28.3281 43.0599 30.0081 44.7299 32.0681 44.7299C34.1281 44.7299 35.8081 43.0499 35.8081 40.9999C35.8081 38.9499 34.1281 37.2599 32.0681 37.2599Z" fill="#505052"/>
<path d="M33.6992 108.65C34.7892 108.54 57.6992 102.89 66.4992 119.62L33.6992 108.65Z" fill="#FFD561"/>
<path d="M66.4883 120.12C66.3083 120.12 66.1383 120.02 66.0483 119.85C63.0483 114.15 54.9383 105.16 34.2983 109.05C34.0183 109.1 33.8283 109.14 33.7483 109.15C33.4683 109.17 33.2283 108.98 33.1983 108.7C33.1683 108.43 33.3683 108.18 33.6483 108.15C33.7183 108.14 33.8783 108.11 34.1083 108.07C41.4583 106.69 59.3783 105.02 66.9283 119.39C67.0583 119.63 66.9583 119.94 66.7183 120.07C66.6483 120.1 66.5683 120.12 66.4883 120.12Z" fill="#505052"/>
<path d="M33.667 109.15C33.067 109.15 32.627 108.39 31.547 106.48C29.607 103.06 25.987 96.7 20.027 94.01C19.777 93.9 19.667 93.6 19.777 93.35C19.887 93.1 20.187 92.99 20.437 93.1C26.697 95.92 30.417 102.47 32.417 105.98C32.967 106.94 33.527 107.94 33.777 108.15C33.997 108.19 34.167 108.36 34.197 108.59C34.227 108.86 34.027 109.11 33.747 109.14C33.717 109.15 33.687 109.15 33.667 109.15Z" fill="#505052"/>
<path d="M120.377 172.84C120.327 172.84 120.277 172.83 120.227 172.82C119.967 172.74 119.817 172.45 119.907 172.19L127.317 148.99C127.397 148.73 127.677 148.58 127.947 148.67C128.207 148.75 128.357 149.04 128.267 149.3L120.857 172.5C120.787 172.7 120.587 172.84 120.377 172.84Z" fill="#505052"/>
<path d="M270.478 171.92H243.178C242.898 171.92 242.678 171.7 242.678 171.42C242.678 171.14 242.898 170.92 243.178 170.92H270.478C270.758 170.92 270.978 171.14 270.978 171.42C270.978 171.7 270.758 171.92 270.478 171.92Z" fill="#505052"/>
</svg>
